<svg width="38" height="15" viewBox="0 0 38 15" fill="none" xmlns="http://www.w3.org/2000/svg">
<path d="M19.6311 5.01314H18.4651V8.33789H17.6374V5.01314H16.4714V4.34764H19.6311V5.01314ZM20.9567 4.99389V6.01964H22.2877V6.64389H20.9567V7.69164H22.6672V8.33789H20.1262V4.34764H22.6672V4.99389H20.9567ZM25.3909 6.82264L24.9592 5.60164C24.9335 5.53747 24.906 5.46231 24.8767 5.37614C24.8492 5.28997 24.8226 5.19647 24.7969 5.09564C24.7713 5.19831 24.7438 5.29364 24.7144 5.38164C24.6869 5.46781 24.6603 5.54297 24.6347 5.60714L24.2057 6.82264H25.3909ZM26.7769 8.33789H26.1362C26.0647 8.33789 26.006 8.32139 25.9602 8.28839C25.9162 8.25356 25.8832 8.20956 25.8612 8.15639L25.5917 7.39464H24.0022L23.7327 8.15639C23.7143 8.20222 23.6823 8.24439 23.6364 8.28289C23.5906 8.31956 23.5328 8.33789 23.4632 8.33789H22.8169L24.3762 4.34764H25.2204L26.7769 8.33789ZM31.5462 4.34764V8.33789H30.8175V5.88764C30.8175 5.83631 30.8184 5.78131 30.8202 5.72264C30.8239 5.66397 30.8294 5.60439 30.8367 5.54389L29.6955 7.70814C29.6332 7.82731 29.5369 7.88689 29.4067 7.88689H29.2912C29.2271 7.88689 29.1702 7.87222 29.1207 7.84289C29.0712 7.81172 29.0318 7.76681 29.0025 7.70814L27.8557 5.53564C27.8612 5.59981 27.8658 5.66214 27.8695 5.72264C27.8732 5.78131 27.875 5.83631 27.875 5.88764V8.33789H27.1462V4.34764H27.7732C27.8081 4.34764 27.8392 4.34856 27.8667 4.35039C27.8942 4.35222 27.9181 4.35772 27.9382 4.36689C27.9602 4.37422 27.9795 4.38706 27.996 4.40539C28.0143 4.42189 28.0317 4.44572 28.0482 4.47689L29.1647 6.60539C29.1996 6.66956 29.2317 6.73556 29.261 6.80339C29.2922 6.87122 29.3215 6.94089 29.349 7.01239C29.3765 6.93906 29.4049 6.86756 29.4342 6.79789C29.4654 6.72822 29.4984 6.66131 29.5332 6.59714L30.6415 4.47689C30.658 4.44572 30.6754 4.42189 30.6937 4.40539C30.7121 4.38706 30.7313 4.37422 30.7515 4.36689C30.7735 4.35772 30.7973 4.35222 30.823 4.35039C30.8505 4.34856 30.8826 4.34764 30.9192 4.34764H31.5462ZM32.8782 4.34764V5.13689L32.8122 5.56864C32.7975 5.65664 32.7709 5.72447 32.7324 5.77214C32.6958 5.81981 32.6344 5.84364 32.5482 5.84364C32.473 5.84364 32.4153 5.81981 32.3749 5.77214C32.3346 5.72447 32.3053 5.65664 32.2869 5.56864L32.2182 5.13689V4.34764H32.8782ZM35.7208 5.11214C35.6952 5.15431 35.6686 5.18547 35.6411 5.20564C35.6154 5.22397 35.5815 5.23314 35.5393 5.23314C35.499 5.23314 35.455 5.21939 35.4073 5.19189C35.3615 5.16256 35.3074 5.13139 35.2451 5.09839C35.1827 5.06539 35.1112 5.03514 35.0306 5.00764C34.9499 4.97831 34.8555 4.96364 34.7473 4.96364C34.5567 4.96364 34.4137 5.00672 34.3183 5.09289C34.223 5.17722 34.1753 5.28814 34.1753 5.42564C34.1753 5.51364 34.201 5.58697 34.2523 5.64564C34.3055 5.70247 34.3742 5.75197 34.4586 5.79414C34.5447 5.83631 34.6419 5.87389 34.7501 5.90689C34.8582 5.93989 34.9692 5.97656 35.0828 6.01689C35.1965 6.05539 35.3074 6.10122 35.4156 6.15439C35.5237 6.20756 35.62 6.27447 35.7043 6.35514C35.7905 6.43581 35.8592 6.53481 35.9106 6.65214C35.9637 6.76764 35.9903 6.90881 35.9903 7.07564C35.9903 7.25714 35.9582 7.42764 35.8941 7.58714C35.8317 7.74481 35.741 7.88322 35.6218 8.00239C35.5027 8.11972 35.3551 8.21231 35.1791 8.28014C35.0049 8.34797 34.8069 8.38189 34.5851 8.38189C34.4586 8.38189 34.3321 8.36906 34.2056 8.34339C34.0809 8.31772 33.9599 8.28197 33.8426 8.23614C33.7271 8.19031 33.618 8.13531 33.5153 8.07114C33.4127 8.00697 33.3228 7.93547 33.2458 7.85664L33.4878 7.46614C33.508 7.43681 33.5346 7.41297 33.5676 7.39464C33.6006 7.37447 33.6354 7.36439 33.6721 7.36439C33.7216 7.36439 33.7738 7.38272 33.8288 7.41939C33.8838 7.45606 33.9471 7.49639 34.0186 7.54039C34.0901 7.58439 34.1726 7.62472 34.2661 7.66139C34.3614 7.69806 34.4751 7.71639 34.6071 7.71639C34.7996 7.71639 34.9481 7.67239 35.0526 7.58439C35.1589 7.49639 35.2121 7.36531 35.2121 7.19114C35.2121 7.09031 35.1855 7.00872 35.1323 6.94639C35.081 6.88406 35.0132 6.83181 34.9288 6.78964C34.8445 6.74747 34.7482 6.71172 34.6401 6.68239C34.5319 6.65122 34.421 6.61731 34.3073 6.58064C34.1937 6.54397 34.0827 6.49997 33.9746 6.44864C33.8664 6.39731 33.7702 6.32947 33.6858 6.24514C33.6015 6.16081 33.5327 6.05631 33.4796 5.93164C33.4282 5.80697 33.4026 5.65206 33.4026 5.46689C33.4026 5.31839 33.4319 5.17447 33.4906 5.03514C33.5492 4.89581 33.6354 4.77206 33.7491 4.66389C33.8627 4.55572 34.0021 4.46864 34.1671 4.40264C34.3339 4.33664 34.5246 4.30364 34.7391 4.30364C34.9792 4.30364 35.2011 4.34122 35.4046 4.41639C35.6099 4.48972 35.7832 4.59239 35.9243 4.72439L35.7208 5.11214ZM17.2969 10.9059V11.7079H18.3409V12.1799H17.2969V13.3379H16.6929V10.4359H18.5409V10.9059H17.2969ZM20.2522 12.2359L19.9382 11.3479C19.9196 11.3012 19.8996 11.2466 19.8782 11.1839C19.8582 11.1212 19.8389 11.0532 19.8202 10.9799C19.8016 11.0546 19.7816 11.1239 19.7602 11.1879C19.7402 11.2506 19.7209 11.3052 19.7022 11.3519L19.3902 12.2359H20.2522ZM21.2602 13.3379H20.7942C20.7422 13.3379 20.6996 13.3259 20.6662 13.3019C20.6342 13.2766 20.6102 13.2446 20.5942 13.2059L20.3982 12.6519H19.2422L19.0462 13.2059C19.0329 13.2392 19.0096 13.2699 18.9762 13.2979C18.9429 13.3246 18.9009 13.3379 18.8502 13.3379H18.3802L19.5142 10.4359H20.1282L21.2602 13.3379ZM23.8344 10.4359L22.6664 13.3379H22.1224L20.9544 10.4359H21.4384C21.4904 10.4359 21.5324 10.4486 21.5644 10.4739C21.5978 10.4979 21.6224 10.5292 21.6384 10.5679L22.2664 12.2399C22.2904 12.3026 22.3138 12.3712 22.3364 12.4459C22.3604 12.5192 22.3824 12.5966 22.4024 12.6779C22.4198 12.5966 22.4384 12.5192 22.4584 12.4459C22.4798 12.3712 22.5024 12.3026 22.5264 12.2399L23.1504 10.5679C23.1638 10.5346 23.1871 10.5046 23.2204 10.4779C23.2551 10.4499 23.2978 10.4359 23.3484 10.4359H23.8344ZM26.8055 11.8859C26.8055 12.0979 26.7695 12.2946 26.6975 12.4759C26.6268 12.6572 26.5261 12.8139 26.3955 12.9459C26.2661 13.0779 26.1101 13.1819 25.9275 13.2579C25.7448 13.3326 25.5421 13.3699 25.3195 13.3699C25.0968 13.3699 24.8941 13.3326 24.7115 13.2579C24.5288 13.1819 24.3721 13.0779 24.2415 12.9459C24.1108 12.8139 24.0095 12.6572 23.9375 12.4759C23.8668 12.2946 23.8315 12.0979 23.8315 11.8859C23.8315 11.6739 23.8668 11.4779 23.9375 11.2979C24.0095 11.1166 24.1108 10.9599 24.2415 10.8279C24.3721 10.6959 24.5288 10.5926 24.7115 10.5179C24.8941 10.4419 25.0968 10.4039 25.3195 10.4039C25.5421 10.4039 25.7448 10.4419 25.9275 10.5179C26.1101 10.5926 26.2661 10.6966 26.3955 10.8299C26.5261 10.9619 26.6268 11.1186 26.6975 11.2999C26.7695 11.4799 26.8055 11.6752 26.8055 11.8859ZM26.1915 11.8859C26.1915 11.7339 26.1715 11.5979 26.1315 11.4779C26.0915 11.3566 26.0335 11.2539 25.9575 11.1699C25.8828 11.0846 25.7915 11.0199 25.6835 10.9759C25.5768 10.9306 25.4555 10.9079 25.3195 10.9079C25.1835 10.9079 25.0615 10.9306 24.9535 10.9759C24.8455 11.0199 24.7535 11.0846 24.6775 11.1699C24.6028 11.2539 24.5455 11.3566 24.5055 11.4779C24.4655 11.5979 24.4455 11.7339 24.4455 11.8859C24.4455 12.0392 24.4655 12.1766 24.5055 12.2979C24.5455 12.4179 24.6028 12.5199 24.6775 12.6039C24.7535 12.6879 24.8455 12.7526 24.9535 12.7979C25.0615 12.8419 25.1835 12.8639 25.3195 12.8639C25.4555 12.8639 25.5768 12.8419 25.6835 12.7979C25.7915 12.7526 25.8828 12.6879 25.9575 12.6039C26.0335 12.5199 26.0915 12.4179 26.1315 12.2979C26.1715 12.1766 26.1915 12.0392 26.1915 11.8859ZM28.1517 11.8099C28.249 11.8099 28.333 11.7979 28.4037 11.7739C28.4743 11.7486 28.5323 11.7146 28.5777 11.6719C28.623 11.6279 28.6563 11.5766 28.6777 11.5179C28.699 11.4592 28.7097 11.3952 28.7097 11.3259C28.7097 11.1886 28.6637 11.0819 28.5717 11.0059C28.481 10.9299 28.3423 10.8919 28.1557 10.8919H27.8437V11.8099H28.1517ZM29.5577 13.3379H29.0157C28.9143 13.3379 28.841 13.2992 28.7957 13.2219L28.2437 12.3319C28.221 12.2972 28.1957 12.2719 28.1677 12.2559C28.141 12.2399 28.101 12.2319 28.0477 12.2319H27.8437V13.3379H27.2437V10.4359H28.1557C28.3583 10.4359 28.5317 10.4572 28.6757 10.4999C28.8197 10.5412 28.9377 10.5992 29.0297 10.6739C29.1217 10.7486 29.189 10.8379 29.2317 10.9419C29.2743 11.0446 29.2957 11.1579 29.2957 11.2819C29.2957 11.3779 29.2817 11.4692 29.2537 11.5559C29.227 11.6412 29.1877 11.7192 29.1357 11.7899C29.0837 11.8606 29.0197 11.9232 28.9437 11.9779C28.8677 12.0326 28.781 12.0766 28.6837 12.1099C28.7223 12.1312 28.7583 12.1572 28.7917 12.1879C28.825 12.2172 28.855 12.2526 28.8817 12.2939L29.5577 13.3379ZM30.4453 13.3379H29.8413V10.4359H30.4453V13.3379ZM33.1063 10.9199H32.2583V13.3379H31.6563V10.9199H30.8083V10.4359H33.1063V10.9199ZM34.0703 10.9059V11.6519H35.0383V12.1059H34.0703V12.8679H35.3143V13.3379H33.4663V10.4359H35.3143V10.9059H34.0703Z" fill="white"/>
<path fill-rule="evenodd" clip-rule="evenodd" d="M8.39995 2.43788V5.23786H12.3619C12.5649 5.23556 12.7659 5.27741 12.951 5.36051C13.1362 5.44361 13.301 5.56597 13.4342 5.71912C13.5674 5.87226 13.6657 6.05253 13.7222 6.24743C13.7788 6.44233 13.7924 6.6472 13.7619 6.84785L12.7959 13.1478C12.7453 13.4816 12.5757 13.7859 12.3185 14.0046C12.0612 14.2233 11.7336 14.3416 11.3959 14.3378H4.50007L4.50007 4.38764L6.29996 0.337891C6.85691 0.337891 7.39105 0.559139 7.78487 0.952963C8.1787 1.34679 8.39995 1.88093 8.39995 2.43788ZM2.50007 14.3378H1.39999C1.02869 14.3378 0.672597 14.1903 0.410048 13.9278C0.147499 13.6652 0 13.3091 0 12.9378V8.03784C0 7.66654 0.147499 7.31045 0.410048 7.0479C0.672597 6.78535 1.02869 6.63785 1.39999 6.63785H2.50007L2.50007 14.3378Z" fill="white"/>
</svg>
