<svg width="36" height="17" viewBox="0 0 36 17" fill="none" xmlns="http://www.w3.org/2000/svg">
<path d="M5.75532 16.8379C4.60198 16.8378 3.47526 16.4912 2.52125 15.8431C1.56725 15.1949 0.82996 14.2751 0.404985 13.2029C-0.0199901 12.1307 -0.113052 10.9556 0.137866 9.82986C0.388785 8.70414 0.972109 7.67976 1.81221 6.88954C2.84211 5.92026 5.3716 4.1751 4.98788 0.337891C9.59253 3.40766 11.8949 6.47743 7.29021 11.0821C8.05765 11.0821 9.20881 11.0821 11.1274 9.18649C11.3346 9.77973 11.5111 10.4175 11.5111 11.0821C11.5111 12.6086 10.9047 14.0726 9.8253 15.1521C8.74588 16.2315 7.28186 16.8379 5.75532 16.8379Z" fill="#FF4545"/>
<path d="M18.0133 7.58402C18.2173 7.58402 18.3844 7.55994 18.5148 7.51177C18.6479 7.46077 18.7542 7.39419 18.8335 7.31202C18.9128 7.22986 18.9681 7.13636 18.9993 7.03152C19.0304 6.92386 19.046 6.81336 19.046 6.70002C19.046 6.57536 19.0276 6.46344 18.9908 6.36427C18.9539 6.26511 18.8944 6.18152 18.8123 6.11352C18.7301 6.04269 18.6224 5.98886 18.4893 5.95202C18.3589 5.91519 18.1974 5.89677 18.0048 5.89677H16.921V7.58402H18.0133ZM16.921 3.36377V5.02977H17.7583C17.9368 5.02977 18.0954 5.01561 18.2343 4.98727C18.3731 4.95611 18.4893 4.90794 18.5828 4.84277C18.6763 4.77761 18.7471 4.69261 18.7953 4.58777C18.8463 4.48011 18.8718 4.35119 18.8718 4.20102C18.8718 4.04802 18.8505 3.91769 18.808 3.81002C18.7683 3.70236 18.706 3.61594 18.621 3.55077C18.536 3.48561 18.4283 3.43886 18.298 3.41052C18.1677 3.37936 18.0133 3.36377 17.8348 3.36377H16.921ZM17.8348 2.39477C18.2484 2.39477 18.6012 2.43444 18.893 2.51377C19.1877 2.59027 19.4271 2.70077 19.6113 2.84527C19.7983 2.98694 19.9343 3.15977 20.0193 3.36377C20.1043 3.56777 20.1468 3.79586 20.1468 4.04802C20.1468 4.18969 20.1255 4.32569 20.083 4.45602C20.0433 4.58636 19.9796 4.70961 19.8918 4.82577C19.8068 4.93911 19.6963 5.04252 19.5603 5.13602C19.4243 5.22952 19.2628 5.30886 19.0758 5.37402C19.4951 5.47319 19.8053 5.63469 20.0065 5.85852C20.2077 6.08236 20.3083 6.37277 20.3083 6.72977C20.3083 6.99044 20.2573 7.23269 20.1553 7.45652C20.0561 7.68036 19.9102 7.87444 19.7175 8.03877C19.5248 8.20311 19.2868 8.33202 19.0035 8.42552C18.723 8.51619 18.4 8.56152 18.0345 8.56152H15.646V2.39477H17.8348ZM22.5657 3.39352V4.97877H24.6227V5.94352H22.5657V7.56277H25.2092V8.56152H21.2822V2.39477H25.2092V3.39352H22.5657ZM29.5036 3.57627C29.4639 3.64144 29.4228 3.68961 29.3803 3.72077C29.3407 3.74911 29.2883 3.76327 29.2231 3.76327C29.1608 3.76327 29.0928 3.74202 29.0191 3.69952C28.9483 3.65419 28.8647 3.60602 28.7683 3.55502C28.672 3.50402 28.5615 3.45727 28.4368 3.41477C28.3122 3.36944 28.1663 3.34677 27.9991 3.34677C27.7044 3.34677 27.4834 3.41336 27.3361 3.54652C27.1888 3.67686 27.1151 3.84827 27.1151 4.06077C27.1151 4.19677 27.1548 4.31011 27.2341 4.40077C27.3163 4.48861 27.4225 4.56511 27.5528 4.63027C27.686 4.69544 27.8362 4.75352 28.0033 4.80452C28.1705 4.85552 28.3419 4.91219 28.5176 4.97452C28.6933 5.03402 28.8647 5.10486 29.0318 5.18702C29.199 5.26919 29.3478 5.37261 29.4781 5.49727C29.6113 5.62194 29.7175 5.77494 29.7968 5.95627C29.879 6.13477 29.9201 6.35294 29.9201 6.61077C29.9201 6.89127 29.8705 7.15477 29.7713 7.40127C29.675 7.64494 29.5348 7.85886 29.3506 8.04302C29.1664 8.22436 28.9383 8.36744 28.6663 8.47227C28.3972 8.57711 28.0912 8.62952 27.7483 8.62952C27.5528 8.62952 27.3573 8.60969 27.1618 8.57002C26.9692 8.53036 26.7822 8.47511 26.6008 8.40427C26.4223 8.33344 26.2538 8.24844 26.0951 8.14927C25.9364 8.05011 25.7976 7.93961 25.6786 7.81777L26.0526 7.21427C26.0838 7.16894 26.1248 7.13211 26.1758 7.10377C26.2268 7.07261 26.2807 7.05702 26.3373 7.05702C26.4138 7.05702 26.4946 7.08536 26.5796 7.14202C26.6646 7.19869 26.7623 7.26102 26.8728 7.32902C26.9833 7.39702 27.1108 7.45936 27.2553 7.51602C27.4027 7.57269 27.5783 7.60102 27.7823 7.60102C28.0798 7.60102 28.3093 7.53302 28.4708 7.39702C28.6352 7.26102 28.7173 7.05844 28.7173 6.78927C28.7173 6.63344 28.6763 6.50736 28.5941 6.41102C28.5148 6.31469 28.4099 6.23394 28.2796 6.16877C28.1493 6.10361 28.0005 6.04836 27.8333 6.00302C27.6662 5.95486 27.4948 5.90244 27.3191 5.84577C27.1434 5.78911 26.972 5.72111 26.8048 5.64177C26.6377 5.56244 26.4889 5.45761 26.3586 5.32727C26.2283 5.19694 26.122 5.03544 26.0398 4.84277C25.9605 4.65011 25.9208 4.41069 25.9208 4.12452C25.9208 3.89502 25.9662 3.67261 26.0568 3.45727C26.1475 3.24194 26.2807 3.05069 26.4563 2.88352C26.632 2.71636 26.8473 2.58177 27.1023 2.47977C27.3602 2.37777 27.6548 2.32677 27.9863 2.32677C28.3575 2.32677 28.7003 2.38486 29.0148 2.50102C29.3322 2.61436 29.5999 2.77302 29.8181 2.97702L29.5036 3.57627ZM35.2095 3.42327H33.4075V8.56152H32.1282V3.42327H30.3262V2.39477H35.2095V3.42327ZM17.814 12.0425C17.786 12.0885 17.757 12.1225 17.727 12.1445C17.699 12.1645 17.662 12.1745 17.616 12.1745C17.572 12.1745 17.524 12.1595 17.472 12.1295C17.422 12.0975 17.363 12.0635 17.295 12.0275C17.227 11.9915 17.149 11.9585 17.061 11.9285C16.973 11.8965 16.87 11.8805 16.752 11.8805C16.544 11.8805 16.388 11.9275 16.284 12.0215C16.18 12.1135 16.128 12.2345 16.128 12.3845C16.128 12.4805 16.156 12.5605 16.212 12.6245C16.27 12.6865 16.345 12.7405 16.437 12.7865C16.531 12.8325 16.637 12.8735 16.755 12.9095C16.873 12.9455 16.994 12.9855 17.118 13.0295C17.242 13.0715 17.363 13.1215 17.481 13.1795C17.599 13.2375 17.704 13.3105 17.796 13.3985C17.89 13.4865 17.965 13.5945 18.021 13.7225C18.079 13.8485 18.108 14.0025 18.108 14.1845C18.108 14.3825 18.073 14.5685 18.003 14.7425C17.935 14.9145 17.836 15.0655 17.706 15.1955C17.576 15.3235 17.415 15.4245 17.223 15.4985C17.033 15.5725 16.817 15.6095 16.575 15.6095C16.437 15.6095 16.299 15.5955 16.161 15.5675C16.025 15.5395 15.893 15.5005 15.765 15.4505C15.639 15.4005 15.52 15.3405 15.408 15.2705C15.296 15.2005 15.198 15.1225 15.114 15.0365L15.378 14.6105C15.4 14.5785 15.429 14.5525 15.465 14.5325C15.501 14.5105 15.539 14.4995 15.579 14.4995C15.633 14.4995 15.69 14.5195 15.75 14.5595C15.81 14.5995 15.879 14.6435 15.957 14.6915C16.035 14.7395 16.125 14.7835 16.227 14.8235C16.331 14.8635 16.455 14.8835 16.599 14.8835C16.809 14.8835 16.971 14.8355 17.085 14.7395C17.201 14.6435 17.259 14.5005 17.259 14.3105C17.259 14.2005 17.23 14.1115 17.172 14.0435C17.116 13.9755 17.042 13.9185 16.95 13.8725C16.858 13.8265 16.753 13.7875 16.635 13.7555C16.517 13.7215 16.396 13.6845 16.272 13.6445C16.148 13.6045 16.027 13.5565 15.909 13.5005C15.791 13.4445 15.686 13.3705 15.594 13.2785C15.502 13.1865 15.427 13.0725 15.369 12.9365C15.313 12.8005 15.285 12.6315 15.285 12.4295C15.285 12.2675 15.317 12.1105 15.381 11.9585C15.445 11.8065 15.539 11.6715 15.663 11.5535C15.787 11.4355 15.939 11.3405 16.119 11.2685C16.301 11.1965 16.509 11.1605 16.743 11.1605C17.005 11.1605 17.247 11.2015 17.469 11.2835C17.693 11.3635 17.882 11.4755 18.036 11.6195L17.814 12.0425ZM19.6667 11.9135V13.0325H21.1187V13.7135H19.6667V14.8565H21.5327V15.5615H18.7607V11.2085H21.5327V11.9135H19.6667ZM24.789 14.8295V15.5615H22.206V11.2085H23.106V14.8295H24.789ZM27.9238 14.8295V15.5615H25.3408V11.2085H26.2408V14.8295H27.9238ZM29.3815 11.9135V13.0325H30.8335V13.7135H29.3815V14.8565H31.2475V15.5615H28.4755V11.2085H31.2475V11.9135H29.3815ZM33.2828 13.2695C33.4288 13.2695 33.5548 13.2515 33.6608 13.2155C33.7668 13.1775 33.8538 13.1265 33.9218 13.0625C33.9898 12.9965 34.0398 12.9195 34.0718 12.8315C34.1038 12.7435 34.1198 12.6475 34.1198 12.5435C34.1198 12.3375 34.0508 12.1775 33.9128 12.0635C33.7768 11.9495 33.5688 11.8925 33.2888 11.8925H32.8208V13.2695H33.2828ZM35.3918 15.5615H34.5788C34.4268 15.5615 34.3168 15.5035 34.2488 15.3875L33.4208 14.0525C33.3868 14.0005 33.3488 13.9625 33.3068 13.9385C33.2668 13.9145 33.2068 13.9025 33.1268 13.9025H32.8208V15.5615H31.9208V11.2085H33.2888C33.5928 11.2085 33.8528 11.2405 34.0688 11.3045C34.2848 11.3665 34.4618 11.4535 34.5998 11.5655C34.7378 11.6775 34.8388 11.8115 34.9028 11.9675C34.9668 12.1215 34.9988 12.2915 34.9988 12.4775C34.9988 12.6215 34.9778 12.7585 34.9358 12.8885C34.8958 13.0165 34.8368 13.1335 34.7588 13.2395C34.6808 13.3455 34.5848 13.4395 34.4708 13.5215C34.3568 13.6035 34.2268 13.6695 34.0808 13.7195C34.1388 13.7515 34.1928 13.7905 34.2428 13.8365C34.2928 13.8805 34.3378 13.9335 34.3778 13.9955L35.3918 15.5615Z" fill="#FF4545"/>
</svg>
